<svg width="369" height="156" viewBox="0 0 369 156" fill="none" xmlns="http://www.w3.org/2000/svg">
<path d="M95.9073 110V95.672H91.0113V93.2H103.899V95.672H98.9793V110H95.9073ZM106.103 110V92.72H109.175V99.92C109.575 99.264 110.111 98.752 110.783 98.384C111.471 98 112.255 97.808 113.135 97.808C114.607 97.808 115.743 98.272 116.543 99.2C117.359 100.128 117.767 101.488 117.767 103.28V110H114.719V103.568C114.719 102.544 114.511 101.76 114.095 101.216C113.695 100.672 113.055 100.4 112.175 100.4C111.311 100.4 110.591 100.704 110.015 101.312C109.455 101.92 109.175 102.768 109.175 103.856V110H106.103ZM126.489 110.288C125.289 110.288 124.225 110.032 123.297 109.52C122.369 109.008 121.641 108.288 121.113 107.36C120.585 106.432 120.321 105.36 120.321 104.144C120.321 102.912 120.577 101.816 121.089 100.856C121.617 99.896 122.337 99.152 123.249 98.624C124.177 98.08 125.265 97.808 126.513 97.808C127.681 97.808 128.713 98.064 129.609 98.576C130.505 99.088 131.201 99.792 131.697 100.688C132.209 101.568 132.465 102.552 132.465 103.64C132.465 103.816 132.457 104 132.441 104.192C132.441 104.384 132.433 104.584 132.417 104.792H123.369C123.433 105.72 123.753 106.448 124.329 106.976C124.921 107.504 125.633 107.768 126.465 107.768C127.089 107.768 127.609 107.632 128.025 107.36C128.457 107.072 128.777 106.704 128.985 106.256H132.105C131.881 107.008 131.505 107.696 130.977 108.32C130.465 108.928 129.825 109.408 129.057 109.76C128.305 110.112 127.449 110.288 126.489 110.288ZM126.513 100.304C125.761 100.304 125.097 100.52 124.521 100.952C123.945 101.368 123.577 102.008 123.417 102.872H129.345C129.297 102.088 129.009 101.464 128.481 101C127.953 100.536 127.297 100.304 126.513 100.304ZM140.839 110V93.2H147.055C148.399 93.2 149.511 93.424 150.391 93.872C151.271 94.32 151.927 94.936 152.359 95.72C152.791 96.504 153.007 97.384 153.007 98.36C153.007 99.288 152.799 100.144 152.383 100.928C151.967 101.696 151.319 102.32 150.439 102.8C149.559 103.264 148.431 103.496 147.055 103.496H143.911V110H140.839ZM143.911 101H146.863C147.935 101 148.703 100.768 149.167 100.304C149.647 99.824 149.887 99.176 149.887 98.36C149.887 97.528 149.647 96.88 149.167 96.416C148.703 95.936 147.935 95.696 146.863 95.696H143.911V101ZM155.345 110V92.72H158.417V99.92C158.817 99.264 159.353 98.752 160.025 98.384C160.713 98 161.497 97.808 162.377 97.808C163.849 97.808 164.985 98.272 165.785 99.2C166.601 100.128 167.009 101.488 167.009 103.28V110H163.961V103.568C163.961 102.544 163.753 101.76 163.337 101.216C162.937 100.672 162.297 100.4 161.417 100.4C160.553 100.4 159.833 100.704 159.257 101.312C158.697 101.92 158.417 102.768 158.417 103.856V110H155.345ZM175.659 110.288C174.507 110.288 173.467 110.024 172.539 109.496C171.627 108.968 170.899 108.24 170.355 107.312C169.827 106.368 169.563 105.28 169.563 104.048C169.563 102.816 169.835 101.736 170.379 100.808C170.923 99.864 171.651 99.128 172.563 98.6C173.491 98.072 174.531 97.808 175.683 97.808C176.819 97.808 177.843 98.072 178.755 98.6C179.683 99.128 180.411 99.864 180.939 100.808C181.483 101.736 181.755 102.816 181.755 104.048C181.755 105.28 181.483 106.368 180.939 107.312C180.411 108.24 179.683 108.968 178.755 109.496C177.827 110.024 176.795 110.288 175.659 110.288ZM175.659 107.624C176.459 107.624 177.155 107.328 177.747 106.736C178.339 106.128 178.635 105.232 178.635 104.048C178.635 102.864 178.339 101.976 177.747 101.384C177.155 100.776 176.467 100.472 175.683 100.472C174.867 100.472 174.163 100.776 173.571 101.384C172.995 101.976 172.707 102.864 172.707 104.048C172.707 105.232 172.995 106.128 173.571 106.736C174.163 107.328 174.859 107.624 175.659 107.624ZM184.501 110V98.096H187.213L187.453 100.112C187.821 99.408 188.349 98.848 189.037 98.432C189.741 98.016 190.565 97.808 191.509 97.808C192.981 97.808 194.125 98.272 194.941 99.2C195.757 100.128 196.165 101.488 196.165 103.28V110H193.093V103.568C193.093 102.544 192.885 101.76 192.469 101.216C192.053 100.672 191.405 100.4 190.525 100.4C189.661 100.4 188.949 100.704 188.389 101.312C187.845 101.92 187.573 102.768 187.573 103.856V110H184.501ZM204.815 110.288C203.663 110.288 202.623 110.024 201.695 109.496C200.783 108.968 200.055 108.24 199.511 107.312C198.983 106.368 198.719 105.28 198.719 104.048C198.719 102.816 198.991 101.736 199.535 100.808C200.079 99.864 200.807 99.128 201.719 98.6C202.647 98.072 203.687 97.808 204.839 97.808C205.975 97.808 206.999 98.072 207.911 98.6C208.839 99.128 209.567 99.864 210.095 100.808C210.639 101.736 210.911 102.816 210.911 104.048C210.911 105.28 210.639 106.368 210.095 107.312C209.567 108.24 208.839 108.968 207.911 109.496C206.983 110.024 205.951 110.288 204.815 110.288ZM204.815 107.624C205.615 107.624 206.311 107.328 206.903 106.736C207.495 106.128 207.791 105.232 207.791 104.048C207.791 102.864 207.495 101.976 206.903 101.384C206.311 100.776 205.623 100.472 204.839 100.472C204.023 100.472 203.319 100.776 202.727 101.384C202.151 101.976 201.863 102.864 201.863 104.048C201.863 105.232 202.151 106.128 202.727 106.736C203.319 107.328 204.015 107.624 204.815 107.624ZM217.948 106.448C217.372 106.448 216.836 106.384 216.34 106.256L215.452 107.144C215.724 107.288 216.092 107.408 216.556 107.504C217.02 107.6 217.772 107.696 218.812 107.792C220.396 107.936 221.548 108.312 222.268 108.92C222.988 109.528 223.348 110.368 223.348 111.44C223.348 112.144 223.156 112.808 222.772 113.432C222.388 114.072 221.796 114.584 220.996 114.968C220.196 115.368 219.172 115.568 217.924 115.568C216.228 115.568 214.86 115.248 213.82 114.608C212.78 113.984 212.26 113.04 212.26 111.776C212.26 110.704 212.78 109.776 213.82 108.992C213.5 108.848 213.22 108.696 212.98 108.536C212.756 108.376 212.556 108.208 212.38 108.032V107.48L214.468 105.272C213.54 104.456 213.076 103.408 213.076 102.128C213.076 101.328 213.268 100.6 213.652 99.944C214.052 99.288 214.612 98.768 215.332 98.384C216.052 98 216.924 97.808 217.948 97.808C218.62 97.808 219.244 97.904 219.82 98.096H224.332V99.968L222.292 100.112C222.612 100.72 222.772 101.392 222.772 102.128C222.772 102.928 222.58 103.656 222.196 104.312C221.812 104.968 221.252 105.488 220.516 105.872C219.796 106.256 218.94 106.448 217.948 106.448ZM217.948 104.096C218.572 104.096 219.084 103.928 219.484 103.592C219.9 103.256 220.108 102.776 220.108 102.152C220.108 101.528 219.9 101.048 219.484 100.712C219.084 100.376 218.572 100.208 217.948 100.208C217.292 100.208 216.764 100.376 216.364 100.712C215.964 101.048 215.764 101.528 215.764 102.152C215.764 102.776 215.964 103.256 216.364 103.592C216.764 103.928 217.292 104.096 217.948 104.096ZM215.068 111.464C215.068 112.056 215.34 112.496 215.884 112.784C216.444 113.088 217.124 113.24 217.924 113.24C218.692 113.24 219.316 113.08 219.796 112.76C220.276 112.456 220.516 112.04 220.516 111.512C220.516 111.08 220.356 110.72 220.036 110.432C219.732 110.144 219.116 109.968 218.188 109.904C217.532 109.856 216.924 109.784 216.364 109.688C215.9 109.944 215.564 110.224 215.356 110.528C215.164 110.832 215.068 111.144 215.068 111.464ZM226.572 110V98.096H229.308L229.596 100.328C230.028 99.56 230.612 98.952 231.348 98.504C232.1 98.04 232.98 97.808 233.988 97.808V101.048H233.124C232.452 101.048 231.852 101.152 231.324 101.36C230.796 101.568 230.38 101.928 230.076 102.44C229.788 102.952 229.644 103.664 229.644 104.576V110H226.572ZM240.191 110.288C239.167 110.288 238.327 110.128 237.671 109.808C237.015 109.472 236.527 109.032 236.207 108.488C235.887 107.944 235.727 107.344 235.727 106.688C235.727 105.584 236.159 104.688 237.023 104C237.887 103.312 239.183 102.968 240.911 102.968H243.935V102.68C243.935 101.864 243.703 101.264 243.239 100.88C242.775 100.496 242.199 100.304 241.511 100.304C240.887 100.304 240.343 100.456 239.879 100.76C239.415 101.048 239.127 101.48 239.015 102.056H236.015C236.095 101.192 236.383 100.44 236.879 99.8C237.391 99.16 238.047 98.672 238.847 98.336C239.647 97.984 240.543 97.808 241.535 97.808C243.231 97.808 244.567 98.232 245.543 99.08C246.519 99.928 247.007 101.128 247.007 102.68V110H244.391L244.103 108.08C243.751 108.72 243.255 109.248 242.615 109.664C241.991 110.08 241.183 110.288 240.191 110.288ZM240.887 107.888C241.767 107.888 242.447 107.6 242.927 107.024C243.423 106.448 243.735 105.736 243.863 104.888H241.247C240.431 104.888 239.847 105.04 239.495 105.344C239.143 105.632 238.967 105.992 238.967 106.424C238.967 106.888 239.143 107.248 239.495 107.504C239.847 107.76 240.311 107.888 240.887 107.888ZM249.939 115.28V98.096H252.675L253.011 99.8C253.395 99.272 253.899 98.808 254.523 98.408C255.163 98.008 255.987 97.808 256.995 97.808C258.115 97.808 259.115 98.08 259.995 98.624C260.875 99.168 261.571 99.912 262.083 100.856C262.595 101.8 262.851 102.872 262.851 104.072C262.851 105.272 262.595 106.344 262.083 107.288C261.571 108.216 260.875 108.952 259.995 109.496C259.115 110.024 258.115 110.288 256.995 110.288C256.099 110.288 255.315 110.12 254.643 109.784C253.971 109.448 253.427 108.976 253.011 108.368V115.28H249.939ZM256.347 107.6C257.323 107.6 258.131 107.272 258.771 106.616C259.411 105.96 259.731 105.112 259.731 104.072C259.731 103.032 259.411 102.176 258.771 101.504C258.131 100.832 257.323 100.496 256.347 100.496C255.355 100.496 254.539 100.832 253.899 101.504C253.275 102.16 252.963 103.008 252.963 104.048C252.963 105.088 253.275 105.944 253.899 106.616C254.539 107.272 255.355 107.6 256.347 107.6ZM265.595 110V92.72H268.667V99.92C269.067 99.264 269.603 98.752 270.275 98.384C270.963 98 271.747 97.808 272.627 97.808C274.099 97.808 275.235 98.272 276.035 99.2C276.851 100.128 277.259 101.488 277.259 103.28V110H274.211V103.568C274.211 102.544 274.003 101.76 273.587 101.216C273.187 100.672 272.547 100.4 271.667 100.4C270.803 100.4 270.083 100.704 269.507 101.312C268.947 101.92 268.667 102.768 268.667 103.856V110H265.595Z" fill="white" fill-opacity="0.5"/>
<path d="M137.347 141V129.8H141.267C142.142 129.8 142.867 129.949 143.443 130.248C144.019 130.536 144.446 130.936 144.723 131.448C145.011 131.949 145.155 132.52 145.155 133.16C145.155 133.768 145.016 134.328 144.739 134.84C144.472 135.341 144.051 135.741 143.475 136.04C142.899 136.339 142.163 136.488 141.267 136.488H139.043V141H137.347ZM139.043 135.096H141.187C141.987 135.096 142.558 134.925 142.899 134.584C143.251 134.232 143.427 133.757 143.427 133.16C143.427 132.541 143.251 132.061 142.899 131.72C142.558 131.368 141.987 131.192 141.187 131.192H139.043V135.096ZM146.767 141V129.48H148.463V141H146.767ZM153.299 141.192C152.627 141.192 152.072 141.08 151.635 140.856C151.198 140.632 150.872 140.339 150.659 139.976C150.446 139.603 150.339 139.197 150.339 138.76C150.339 137.992 150.638 137.384 151.235 136.936C151.832 136.488 152.686 136.264 153.795 136.264H155.875V136.12C155.875 135.501 155.704 135.037 155.363 134.728C155.032 134.419 154.6 134.264 154.067 134.264C153.598 134.264 153.187 134.381 152.835 134.616C152.494 134.84 152.286 135.176 152.211 135.624H150.515C150.568 135.048 150.76 134.557 151.091 134.152C151.432 133.736 151.859 133.421 152.371 133.208C152.894 132.984 153.464 132.872 154.083 132.872C155.192 132.872 156.051 133.165 156.659 133.752C157.267 134.328 157.571 135.117 157.571 136.12V141H156.099L155.955 139.64C155.731 140.077 155.406 140.445 154.979 140.744C154.552 141.043 153.992 141.192 153.299 141.192ZM153.635 139.816C154.094 139.816 154.478 139.709 154.787 139.496C155.107 139.272 155.352 138.979 155.523 138.616C155.704 138.253 155.816 137.853 155.859 137.416H153.971C153.299 137.416 152.819 137.533 152.531 137.768C152.254 138.003 152.115 138.296 152.115 138.648C152.115 139.011 152.248 139.299 152.515 139.512C152.792 139.715 153.166 139.816 153.635 139.816ZM160.227 144.52L162.131 140.344H161.667L158.531 133.064H160.371L162.803 138.936L165.347 133.064H167.139L162.019 144.52H160.227ZM171.526 141.192C170.748 141.192 170.054 141.021 169.446 140.68C168.849 140.328 168.38 139.843 168.038 139.224C167.697 138.605 167.526 137.885 167.526 137.064C167.526 136.232 167.692 135.501 168.022 134.872C168.364 134.243 168.833 133.752 169.43 133.4C170.038 133.048 170.742 132.872 171.542 132.872C172.321 132.872 172.998 133.048 173.574 133.4C174.15 133.741 174.598 134.2 174.918 134.776C175.238 135.352 175.398 135.987 175.398 136.68C175.398 136.787 175.393 136.904 175.382 137.032C175.382 137.149 175.377 137.283 175.366 137.432H169.19C169.244 138.2 169.494 138.787 169.942 139.192C170.401 139.587 170.929 139.784 171.526 139.784C172.006 139.784 172.406 139.677 172.726 139.464C173.057 139.24 173.302 138.941 173.462 138.568H175.158C174.945 139.315 174.518 139.939 173.878 140.44C173.249 140.941 172.465 141.192 171.526 141.192ZM171.526 134.264C170.961 134.264 170.46 134.435 170.022 134.776C169.585 135.107 169.318 135.608 169.222 136.28H173.702C173.67 135.661 173.452 135.171 173.046 134.808C172.641 134.445 172.134 134.264 171.526 134.264ZM177.158 141V133.064H178.678L178.822 134.568C179.099 134.045 179.483 133.635 179.974 133.336C180.475 133.027 181.078 132.872 181.782 132.872V134.648H181.318C180.849 134.648 180.427 134.728 180.054 134.888C179.691 135.037 179.398 135.299 179.174 135.672C178.961 136.035 178.854 136.541 178.854 137.192V141H177.158ZM187.331 141V129.8H194.355V131.176H189.027V134.712H193.443V136.072H189.027V141H187.331ZM199.276 141.192C198.519 141.192 197.836 141.021 197.228 140.68C196.631 140.328 196.156 139.843 195.804 139.224C195.452 138.595 195.276 137.864 195.276 137.032C195.276 136.2 195.452 135.475 195.804 134.856C196.167 134.227 196.652 133.741 197.26 133.4C197.868 133.048 198.546 132.872 199.292 132.872C200.05 132.872 200.727 133.048 201.324 133.4C201.932 133.741 202.412 134.227 202.764 134.856C203.127 135.475 203.308 136.2 203.308 137.032C203.308 137.864 203.127 138.595 202.764 139.224C202.412 139.843 201.932 140.328 201.324 140.68C200.716 141.021 200.034 141.192 199.276 141.192ZM199.276 139.736C199.682 139.736 200.055 139.635 200.396 139.432C200.748 139.229 201.031 138.931 201.244 138.536C201.458 138.131 201.564 137.629 201.564 137.032C201.564 136.435 201.458 135.939 201.244 135.544C201.042 135.139 200.764 134.835 200.412 134.632C200.071 134.429 199.698 134.328 199.292 134.328C198.887 134.328 198.508 134.429 198.156 134.632C197.815 134.835 197.538 135.139 197.324 135.544C197.111 135.939 197.004 136.435 197.004 137.032C197.004 137.629 197.111 138.131 197.324 138.536C197.538 138.931 197.815 139.229 198.156 139.432C198.498 139.635 198.871 139.736 199.276 139.736ZM205.142 141V133.064H206.662L206.806 134.568C207.084 134.045 207.468 133.635 207.958 133.336C208.46 133.027 209.062 132.872 209.766 132.872V134.648H209.302C208.833 134.648 208.412 134.728 208.038 134.888C207.676 135.037 207.382 135.299 207.158 135.672C206.945 136.035 206.838 136.541 206.838 137.192V141H205.142ZM214.596 141L218.724 129.8H220.58L224.676 141H222.884L221.924 138.264H217.348L216.388 141H214.596ZM217.828 136.92H221.444L219.636 131.816L217.828 136.92ZM226.174 141V129.48H227.87V141H226.174ZM230.017 141V129.48H231.713V141H230.017Z" fill="white" fill-opacity="0.5"/>
<path fill-rule="evenodd" clip-rule="evenodd" d="M184.5 48.4168C190.529 48.4168 195.417 43.5292 195.417 37.5C195.417 31.4708 190.529 26.5832 184.5 26.5832C178.471 26.5832 173.583 31.4708 173.583 37.5C173.583 43.5292 178.471 48.4168 184.5 48.4168ZM184.41 44.1685C188.143 44.1685 191.168 41.1427 191.168 37.4103C191.168 33.6779 188.143 30.6522 184.41 30.6522C180.678 30.6522 177.652 33.6779 177.652 37.4103C177.652 41.1427 180.678 44.1685 184.41 44.1685Z" fill="white" fill-opacity="0.2"/>
<path fill-rule="evenodd" clip-rule="evenodd" d="M184.39 43.7037C187.877 43.7037 190.704 40.8769 190.704 37.3899C190.704 33.9029 187.877 31.0761 184.39 31.0761C180.903 31.0761 178.076 33.9029 178.076 37.3899C178.076 40.8769 180.903 43.7037 184.39 43.7037ZM184.39 41.4372C186.625 41.4372 188.437 39.6252 188.437 37.3899C188.437 35.1546 186.625 33.3426 184.39 33.3426C182.155 33.3426 180.343 35.1546 180.343 37.3899C180.343 39.6252 182.155 41.4372 184.39 41.4372Z" fill="white" fill-opacity="0.2"/>
<g filter="url(#filter0_b_638_788)">
<path fill-rule="evenodd" clip-rule="evenodd" d="M184.5 73.3696C204.31 73.3696 220.37 57.3102 220.37 37.5C220.37 17.6898 204.31 1.63043 184.5 1.63043C164.69 1.63043 148.63 17.6898 148.63 37.5C148.63 57.3102 164.69 73.3696 184.5 73.3696ZM184.5 49.5652C191.163 49.5652 196.565 44.1634 196.565 37.5C196.565 30.8366 191.163 25.4348 184.5 25.4348C177.837 25.4348 172.435 30.8366 172.435 37.5C172.435 44.1634 177.837 49.5652 184.5 49.5652Z" fill="#D9D9D9" fill-opacity="0.6"/>
</g>
<circle cx="184.5" cy="37.5" r="37.0365" stroke="white" stroke-opacity="0.2" stroke-width="0.927088"/>
<defs>
<filter id="filter0_b_638_788" x="147.394" y="0.394315" width="74.2114" height="74.2114" filterUnits="userSpaceOnUse" color-interpolation-filters="sRGB">
<feFlood flood-opacity="0" result="BackgroundImageFix"/>
<feGaussianBlur in="BackgroundImage" stdDeviation="0.618059"/>
<feComposite in2="SourceAlpha" operator="in" result="effect1_backgroundBlur_638_788"/>
<feBlend mode="normal" in="SourceGraphic" in2="effect1_backgroundBlur_638_788" result="shape"/>
</filter>
</defs>
</svg>
